<svg width="377" height="65" viewBox="0 0 377 65" fill="none" xmlns="http://www.w3.org/2000/svg">
<path d="M16.032 3.328C20.7253 3.328 24.8427 4.24533 28.384 6.08C31.968 7.91466 34.72 10.5387 36.64 13.952C38.6027 17.3227 39.584 21.248 39.584 25.728C39.584 30.208 38.6027 34.1333 36.64 37.504C34.72 40.832 31.968 43.4133 28.384 45.248C24.8427 47.0827 20.7253 48 16.032 48H0.416V3.328H16.032ZM15.712 40.384C20.4053 40.384 24.032 39.104 26.592 36.544C29.152 33.984 30.432 30.3787 30.432 25.728C30.432 21.0773 29.152 17.4507 26.592 14.848C24.032 12.2027 20.4053 10.88 15.712 10.88H9.376V40.384H15.712ZM85.651 29.504C85.651 30.784 85.5657 31.936 85.395 32.96H59.475C59.6883 35.52 60.5843 37.5253 62.163 38.976C63.7417 40.4267 65.683 41.152 67.987 41.152C71.315 41.152 73.683 39.7227 75.091 36.864H84.755C83.731 40.2773 81.7683 43.0933 78.867 45.312C75.9657 47.488 72.403 48.576 68.179 48.576C64.7657 48.576 61.6937 47.8293 58.963 46.336C56.275 44.8 54.163 42.6453 52.627 39.872C51.1337 37.0987 50.387 33.8987 50.387 30.272C50.387 26.6027 51.1337 23.3813 52.627 20.608C54.1203 17.8347 56.211 15.7013 58.899 14.208C61.587 12.7147 64.6803 11.968 68.179 11.968C71.5497 11.968 74.5577 12.6933 77.203 14.144C79.891 15.5947 81.9603 17.664 83.411 20.352C84.9043 22.9973 85.651 26.048 85.651 29.504ZM76.371 26.944C76.3283 24.64 75.4963 22.8053 73.875 21.44C72.2537 20.032 70.2697 19.328 67.923 19.328C65.7043 19.328 63.827 20.0107 62.291 21.376C60.7977 22.6987 59.8803 24.5547 59.539 26.944H76.371ZM113.375 39.744L122.335 12.544H131.871L118.751 48H107.871L94.815 12.544H104.415L113.375 39.744ZM176.264 29.504C176.264 30.784 176.178 31.936 176.007 32.96H150.087C150.301 35.52 151.197 37.5253 152.775 38.976C154.354 40.4267 156.295 41.152 158.599 41.152C161.927 41.152 164.295 39.7227 165.703 36.864H175.368C174.343 40.2773 172.381 43.0933 169.479 45.312C166.578 47.488 163.015 48.576 158.791 48.576C155.378 48.576 152.306 47.8293 149.575 46.336C146.887 44.8 144.775 42.6453 143.239 39.872C141.746 37.0987 140.999 33.8987 140.999 30.272C140.999 26.6027 141.746 23.3813 143.239 20.608C144.733 17.8347 146.823 15.7013 149.511 14.208C152.199 12.7147 155.293 11.968 158.791 11.968C162.162 11.968 165.17 12.6933 167.815 14.144C170.503 15.5947 172.573 17.664 174.023 20.352C175.517 22.9973 176.264 26.048 176.264 29.504ZM166.983 26.944C166.941 24.64 166.109 22.8053 164.487 21.44C162.866 20.032 160.882 19.328 158.535 19.328C156.317 19.328 154.439 20.0107 152.903 21.376C151.41 22.6987 150.493 24.5547 150.151 26.944H166.983ZM198.164 0.639999V48H189.204V0.639999H198.164ZM229.16 48.576C225.747 48.576 222.675 47.8293 219.944 46.336C217.213 44.8 215.059 42.6453 213.48 39.872C211.944 37.0987 211.176 33.8987 211.176 30.272C211.176 26.6453 211.965 23.4453 213.544 20.672C215.165 17.8987 217.363 15.7653 220.136 14.272C222.909 12.736 226.003 11.968 229.416 11.968C232.829 11.968 235.923 12.736 238.696 14.272C241.469 15.7653 243.645 17.8987 245.224 20.672C246.845 23.4453 247.656 26.6453 247.656 30.272C247.656 33.8987 246.824 37.0987 245.16 39.872C243.539 42.6453 241.32 44.8 238.504 46.336C235.731 47.8293 232.616 48.576 229.16 48.576ZM229.16 40.768C230.781 40.768 232.296 40.384 233.704 39.616C235.155 38.8053 236.307 37.6107 237.16 36.032C238.013 34.4533 238.44 32.5333 238.44 30.272C238.44 26.9013 237.544 24.32 235.752 22.528C234.003 20.6933 231.848 19.776 229.288 19.776C226.728 19.776 224.573 20.6933 222.824 22.528C221.117 24.32 220.264 26.9013 220.264 30.272C220.264 33.6427 221.096 36.2453 222.76 38.08C224.467 39.872 226.6 40.768 229.16 40.768ZM269.588 17.664C270.74 16.0427 272.319 14.6987 274.324 13.632C276.372 12.5227 278.698 11.968 281.3 11.968C284.33 11.968 287.06 12.7147 289.492 14.208C291.967 15.7013 293.908 17.8347 295.316 20.608C296.767 23.3387 297.492 26.5173 297.492 30.144C297.492 33.7707 296.767 36.992 295.316 39.808C293.908 42.5813 291.967 44.736 289.492 46.272C287.06 47.808 284.33 48.576 281.3 48.576C278.698 48.576 276.394 48.0427 274.388 46.976C272.426 45.9093 270.826 44.5653 269.588 42.944V64.896H260.628V12.544H269.588V17.664ZM288.34 30.144C288.34 28.0107 287.892 26.176 286.996 24.64C286.143 23.0613 284.991 21.8667 283.54 21.056C282.132 20.2453 280.596 19.84 278.932 19.84C277.311 19.84 275.775 20.2667 274.324 21.12C272.916 21.9307 271.764 23.1253 270.868 24.704C270.015 26.2827 269.588 28.1387 269.588 30.272C269.588 32.4053 270.015 34.2613 270.868 35.84C271.764 37.4187 272.916 38.6347 274.324 39.488C275.775 40.2987 277.311 40.704 278.932 40.704C280.596 40.704 282.132 40.2773 283.54 39.424C284.991 38.5707 286.143 37.3547 286.996 35.776C287.892 34.1973 288.34 32.32 288.34 30.144ZM343.363 29.504C343.363 30.784 343.278 31.936 343.107 32.96H317.187C317.401 35.52 318.297 37.5253 319.875 38.976C321.454 40.4267 323.395 41.152 325.699 41.152C329.027 41.152 331.395 39.7227 332.803 36.864H342.467C341.443 40.2773 339.481 43.0933 336.579 45.312C333.678 47.488 330.115 48.576 325.891 48.576C322.478 48.576 319.406 47.8293 316.675 46.336C313.987 44.8 311.875 42.6453 310.339 39.872C308.846 37.0987 308.099 33.8987 308.099 30.272C308.099 26.6027 308.846 23.3813 310.339 20.608C311.833 17.8347 313.923 15.7013 316.611 14.208C319.299 12.7147 322.393 11.968 325.891 11.968C329.262 11.968 332.27 12.6933 334.915 14.144C337.603 15.5947 339.673 17.664 341.123 20.352C342.617 22.9973 343.363 26.048 343.363 29.504ZM334.083 26.944C334.041 24.64 333.209 22.8053 331.587 21.44C329.966 20.032 327.982 19.328 325.635 19.328C323.417 19.328 321.539 20.0107 320.003 21.376C318.51 22.6987 317.593 24.5547 317.251 26.944H334.083ZM365.264 18.048C366.416 16.1707 367.909 14.6987 369.744 13.632C371.621 12.5653 373.754 12.032 376.144 12.032V21.44H373.776C370.96 21.44 368.826 22.1013 367.376 23.424C365.968 24.7467 365.264 27.0507 365.264 30.336V48H356.304V12.544H365.264V18.048Z" fill="white"/>
</svg>
